<svg xmlns="http://www.w3.org/2000/svg" class="css-13ewrgb" aria-hidden="true" data-icon="circle-bolt" data-prefix="fal" viewBox="0 0 512 512">
  <path fill="#6366f1" d="M336 240H215.8l104.7-100.5c6.375-6.125 6.562-16.25.438-22.62-6.094-6.406-16.22-6.531-22.62-.469l-133.3 128C160.2 248.1 158.7 255.9 161.2 261.1S169.5 272 176 272h120.2L191.5 372.5c-6.375 6.125-6.562 16.25-.438 22.62A16.256 16.256 0 0 0 202.7 400c4 0 7.969-1.484 11.09-4.453l133.3-128c4.688-4.531 6.188-11.45 3.75-17.52S342.5 240 336 240zM256 0C114.6 0 0 114.6 0 256s114.6 256 256 256 256-114.6 256-256S397.4 0 256 0zm0 480C132.5 480 32 379.5 32 256S132.5 32 256 32s224 100.5 224 224-100.5 224-224 224z"/>
</svg>
