<svg xmlns="http://www.w3.org/2000/svg" class="css-13ewrgb" aria-hidden="true" data-icon="pen-ruler" data-prefix="fal" viewBox="0 0 512 512"><path fill="#eab308" d="m493.2 56.26-37.51-37.51C443.19 6.25 426.81 0 410.43 0s-32.76 6.248-45.26 18.75L34.46 349.5l-8.752 16.35-25.4 126.1C-1.717 502.1 6.143 512 15.93 512c1.047 0 2.115-.104 3.197-.32l126.1-25.4 16.35-8.75L493.3 146.7c25-25 24.9-65.44-.1-90.44zm-350 395.34-7.996 4.279-98.78 19.76 19.75-98.79 4.279-7.998 254.9-254.9 82.76 82.76L143.2 451.6zm327.4-327.5-49.93 49.93-82.77-82.77 49.93-49.93c6.07-6 14.07-9.33 22.67-9.33 8.547 0 16.58 3.328 22.63 9.373L470.6 78.89c6.1 6.04 9.4 14.08 9.4 22.61 0 8.6-3.3 16.6-9.4 22.6zM101.5 237.3l22.6-22.7-87.41-87.4c-6.238-6.238-6.238-16.39 0-22.63l67.88-67.88c6.238-6.238 16.39-6.238 22.63 0l33.94 33.94-45.34 45.27c-6.254 6.254-6.214 16.4.04 22.66s16.37 6.254 22.63 0l45.25-45.26 30.88 30.8 22.63-22.63-87.43-87.41c-18.75-18.75-49.14-18.75-67.88 0L14.06 81.94c-18.74 18.74-18.74 49.14 0 67.88l87.44 87.48zm309 37.5-22.6 22.6 30.86 30.86-45.26 45.25c-6.254 6.254-6.254 16.37 0 22.63 6.252 6.254 16.42 6.302 22.68.048l45.21-45.3 33.94 33.94c6.238 6.238 6.236 16.39-.002 22.63l-67.88 67.88c-6.238 6.238-16.39 6.238-22.63 0l-87.42-87.43-22.63 22.62 87.43 87.43c18.74 18.74 49.14 18.74 67.88 0l67.88-67.88c18.75-18.74 18.75-49.14.002-67.88L410.5 274.8z"/></svg>