<svg xmlns="http://www.w3.org/2000/svg" fill="none" viewBox="0 0 24 24" width="24" height="24"><path stroke="currentColor" d="m15.323 4.677-6.218 6.217c-.412.412-.618.619-.79.85a4 4 0 0 0-.398.654c-.125.26-.213.537-.389 1.093l-.915 2.896 2.896-.916c.556-.175.834-.263 1.093-.389.23-.11.45-.244.654-.397.231-.172.437-.379.85-.79l6.217-6.218m-3-3L16.5 3.5c.409-.409.613-.613.834-.723a1.5 1.5 0 0 1 1.332 0c.22.11.425.314.834.723s.613.613.723.834a1.5 1.5 0 0 1 0 1.332c-.11.22-.314.425-.723.834l-1.177 1.177m-3-3 3 3M20 21H4" stroke-linecap="round" stroke-linejoin="round" stroke-width="1.5"/></svg>