<svg xmlns="http://www.w3.org/2000/svg" fill="none" viewBox="0 0 24 24" width="24" height="24"><path fill="currentColor" d="M7.95 6.75a.75.75 0 0 0 0 1.5v-1.5Zm4.5 1.5a.75.75 0 0 0 0-1.5v1.5Zm-4.5 3a.75.75 0 0 0 0 1.5v-1.5Zm4.5 1.5a.75.75 0 0 0 0-1.5v1.5Zm-4.5 3a.75.75 0 0 0 0 1.5v-1.5Zm4.5 1.5a.75.75 0 0 0 0-1.5v1.5ZM3.75 17V5h-1.5v12h1.5Zm12.9-12v3.6h1.5V5h-1.5Zm2.55 15.25H7v1.5h12.2v-1.5Zm-1.8-10.9h2.1v-1.5h-2.1v1.5Zm2.85.75v9.1h1.5v-9.1h-1.5Zm-2.1 9.1V8.6h-1.5v10.6h1.5ZM5 3.75h10.4v-1.5H5v1.5Zm2.95 4.5h4.5v-1.5h-4.5v1.5Zm0 4.5h4.5v-1.5h-4.5v1.5Zm0 4.5h4.5v-1.5h-4.5v1.5Zm11.25 3c-.58 0-1.05-.47-1.05-1.05h-1.5a2.55 2.55 0 0 0 2.55 2.55v-1.5ZM2.25 17A4.75 4.75 0 0 0 7 21.75v-1.5A3.25 3.25 0 0 1 3.75 17h-1.5Zm18 2.2c0 .58-.47 1.05-1.05 1.05v1.5a2.55 2.55 0 0 0 2.55-2.55h-1.5ZM18.15 5a2.75 2.75 0 0 0-2.75-2.75v1.5c.69 0 1.25.56 1.25 1.25h1.5Zm1.35 4.35a.75.75 0 0 1 .75.75h1.5a2.25 2.25 0 0 0-2.25-2.25v1.5ZM3.75 5c0-.69.56-1.25 1.25-1.25v-1.5A2.75 2.75 0 0 0 2.25 5h1.5Z"/></svg>