<svg xmlns="http://www.w3.org/2000/svg" class="css-13ewrgb" aria-hidden="true" data-icon="layer-group" data-prefix="fal" viewBox="0 0 512 512">
  <path fill="#ef4444" d="m9.219 142.5 240 112c2.156 1 4.448 1.499 6.76 1.499s4.646-.499 6.802-1.499l240-112c5.619-2.6 9.219-8.3 9.219-15.4s-3.594-11.87-9.219-14.5l-240-112c-4.312-2-9.25-2-13.56 0l-240 112C3.594 116.1 0 121.8 0 127.1s3.594 12.8 9.219 15.4zM256 33.66 458.2 128 256 222.3 53.84 128 256 33.66zM502.8 241.5l-68.56-32c-8.031-3.703-17.53-.297-21.28 7.734-3.75 8-.281 17.53 7.719 21.27L458.2 256 256 350.3 53.84 256l37.5-17.5c8-3.734 11.47-13.27 7.719-21.27-3.749-8.03-13.309-11.43-21.279-7.73l-68.56 32C3.594 244.1 0 249.9 0 256.1c0 6.2 3.594 11.8 9.219 14.4l240 112c2.156 1 4.448 1.572 6.76 1.572s4.646-.572 6.802-1.572l240-112c5.619-2.6 9.219-8.2 9.219-14.4 0-6.2-3.6-12-9.2-14.6zm0 128-68.56-32c-8.031-3.688-17.53-.281-21.28 7.734-3.75 8-.281 17.53 7.719 21.27L458.2 384 256 478.3 53.84 384l37.5-17.5c8-3.734 11.47-13.27 7.719-21.27-3.75-8.016-13.31-11.42-21.28-7.734l-68.56 32C3.594 372.1 0 377.8 0 384s3.594 11.83 9.219 14.46l240 112C251.4 511.5 253.7 512 255.1 512s4.646-.5 6.802-1.5l240-112C508.4 395.9 512 390.3 512 384s-3.6-11.9-9.2-14.5z"/>
</svg>
